<svg xmlns="http://www.w3.org/2000/svg" width="25" height="25" viewBox="0 0 25 25">
    <g fill="none" fill-rule="evenodd">
        <path d="M0 0h25v25H0z"/>
        <g fill="#FFF">
            <path fill-rule="nonzero" d="M12.5 6.667H6.667V12.5H12.5V6.667zm-.833 5H7.5V7.5h4.167v4.167z"/>
            <path d="M21.25 6.667h-6.667a.416.416 0 1 0 0 .833h6.667a.416.416 0 1 0 0-.833zM21.25 9.167h-6.667a.416.416 0 1 0 0 .833h6.667a.416.416 0 1 0 0-.833zM21.25 11.667h-6.667a.416.416 0 1 0 0 .833h6.667a.416.416 0 1 0 0-.833zM21.25 14.167H7.5a.416.416 0 1 0 0 .833h13.75a.416.416 0 1 0 0-.833zM13.75 16.667H7.5a.416.416 0 1 0 0 .833h6.25a.416.416 0 1 0 0-.833zM13.75 19.167H7.5a.416.416 0 1 0 0 .833h6.25a.416.416 0 1 0 0-.833zM13.75 21.667H7.5a.416.416 0 1 0 0 .833h6.25a.416.416 0 1 0 0-.833z"/>
            <path fill-rule="nonzero" d="M15.833 22.5h5.834v-5.833h-5.834V22.5zm.834-5h4.166v4.167h-4.166V17.5z"/>
            <path fill-rule="nonzero" d="M24.167 5.417c0-.007-.004-.013-.005-.02V0H4.168v12.5H0v10C0 23.879 1.121 25 2.5 25h19.167a2.499 2.499 0 0 0 2.495-2.496V5.437c0-.007.005-.013.005-.02zM23.329.833V5H5V.833h18.33zM.833 22.5v-9.167h3.334V22.5c0 .92-.748 1.667-1.667 1.667-.92 0-1.667-.748-1.667-1.667zm20.834 1.667H4.362c.007-.008.011-.017.018-.024a2.484 2.484 0 0 0 .44-.717l.019-.051c.048-.128.087-.26.113-.396.003-.012.004-.025.006-.037.026-.144.042-.291.042-.442V5.833h18.33v16.671c0 .917-.747 1.663-1.663 1.663z"/>
            <path fill-rule="nonzero" d="M19.167 1.667h-10v2.5h10v-2.5zm-.834 1.666H10V2.5h8.333v.833z"/>
        </g>
    </g>
</svg>
