<svg xmlns="http://www.w3.org/2000/svg" width="48" height="49" viewBox="11.3 7.3 25 25">
    <g fill="none" fill-rule="evenodd">
        <path d="M0 0h48v49H0z"/>
        <path fill="#FF9500" fill-rule="nonzero" d="M35.894 18.747l-3.678-3.416V9.736H27.98v1.661L23.74 7.462 11.59 18.747a.424.424 0 0 0 .577.621l1.406-1.306v14.131h20.34V18.062l1.406 1.306a.422.422 0 0 0 .598-.022.424.424 0 0 0-.022-.599zm-7.068-8.164h2.543v3.962l-2.543-2.361v-1.6zM21.2 31.346V22.42c0-.22.178-.397.397-.397h4.29c.22 0 .398.178.398.397v8.925h-5.085zm11.865 0H27.13V22.42c0-.687-.558-1.245-1.244-1.245h-4.29c-.687 0-1.245.558-1.245 1.245v8.925h-5.933V17.275l9.322-8.656 6.051 5.618 2.424 2.25.848.788v14.07z"/>
    </g>
</svg>
