<svg xmlns="http://www.w3.org/2000/svg" width="25" height="25" viewBox="0 0 25 25">
    <g fill="none" fill-rule="evenodd">
        <path d="M0 0h25v25H0z"/>
        <g fill="#FFF">
            <path d="M19.362 12.069a.43.43 0 0 0-.431.431v2.586a6.041 6.041 0 0 1-6.034 6.035 6.041 6.041 0 0 1-6.035-6.035V12.5a.43.43 0 1 0-.862 0v2.586c0 3.658 2.864 6.65 6.466 6.875v2.177H10.31a.43.43 0 1 0 0 .862h5.173a.43.43 0 1 0 0-.862h-2.155V21.96c3.601-.224 6.465-3.218 6.465-6.875V12.5a.43.43 0 0 0-.43-.431z"/>
            <path fill-rule="nonzero" d="M12.897 19.828a4.747 4.747 0 0 0 4.74-4.742V4.741A4.747 4.747 0 0 0 12.898 0a4.747 4.747 0 0 0-4.742 4.741v10.345a4.747 4.747 0 0 0 4.742 4.742zM9.017 4.74c0-2.139 1.74-3.879 3.88-3.879 2.138 0 3.879 1.74 3.879 3.88v10.344c0 2.14-1.74 3.88-3.88 3.88a3.884 3.884 0 0 1-3.879-3.88V4.741z"/>
        </g>
    </g>
</svg>
