<svg xmlns="http://www.w3.org/2000/svg" width="40" height="40" viewBox="0 0 40 40">
    <g fill="none" fill-rule="evenodd">
        <path d="M0 0h40v40H0z"/>
        <path fill="#FFF" d="M29.633 27.963l-5.476-5.478a7.75 7.75 0 0 0 1.5-4.617A7.902 7.902 0 0 0 17.801 10a7.766 7.766 0 0 0-7.8 7.812 7.903 7.903 0 0 0 7.856 7.868 7.726 7.726 0 0 0 4.631-1.516l.006-.005 5.47 5.474a1.18 1.18 0 1 0 1.669-1.67zm-11.781-3.851a6.322 6.322 0 0 1-6.286-6.295 6.214 6.214 0 0 1 6.24-6.25 6.322 6.322 0 0 1 6.286 6.295 6.214 6.214 0 0 1-6.24 6.25z"/>
        <path fill="none" d="M0 0h40v40H0z"/>
    </g>
</svg>
